!! not exactly the same each time; diffs every 3s or so !!
key_frame=1
pkt_pts_time=0.000000
--
pkt_pts_time=0.125000
key_frame=1
pkt_pts_time=0.128333
--
pkt_pts_time=0.245000
key_frame=1
pkt_pts_time=0.250000
--
pkt_pts_time=0.375000
key_frame=1
pkt_pts_time=0.378333
--
pkt_pts_time=0.495000
key_frame=1
pkt_pts_time=0.498333
--
pkt_pts_time=0.623333
key_frame=1
pkt_pts_time=0.628333
--
pkt_pts_time=0.745000
key_frame=1
pkt_pts_time=0.748333
--
pkt_pts_time=0.873333
key_frame=1
pkt_pts_time=0.878333
--
pkt_pts_time=0.993333
key_frame=1
pkt_pts_time=0.998333
--
pkt_pts_time=1.123333
key_frame=1
pkt_pts_time=1.126667
--
pkt_pts_time=1.243333
key_frame=1
pkt_pts_time=1.248333
--
pkt_pts_time=1.371667
key_frame=1
pkt_pts_time=1.376667
--
pkt_pts_time=1.493333
key_frame=1
pkt_pts_time=1.496667
--
pkt_pts_time=1.621667
key_frame=1
pkt_pts_time=1.626667
--
pkt_pts_time=1.741667
key_frame=1
pkt_pts_time=1.746667
--
pkt_pts_time=1.871667
key_frame=1
pkt_pts_time=1.875000
--
pkt_pts_time=1.991667
key_frame=1
pkt_pts_time=1.996667
--
pkt_pts_time=2.120000
key_frame=1
pkt_pts_time=2.125000
--
pkt_pts_time=2.241667
key_frame=1
pkt_pts_time=2.245000
--
pkt_pts_time=2.370000
key_frame=1
pkt_pts_time=2.375000
--
pkt_pts_time=2.490000
key_frame=1
pkt_pts_time=2.495000
--
pkt_pts_time=2.620000
key_frame=1
pkt_pts_time=2.623333
--
pkt_pts_time=2.740000
key_frame=1
pkt_pts_time=2.745000
--
pkt_pts_time=2.868333
key_frame=1
pkt_pts_time=2.873333
--
pkt_pts_time=2.990000
key_frame=1
pkt_pts_time=2.993333
--
pkt_pts_time=3.118333
key_frame=1
pkt_pts_time=3.123333
--
pkt_pts_time=3.238333
key_frame=1
pkt_pts_time=3.243333
--
pkt_pts_time=3.368333
key_frame=1
pkt_pts_time=3.371667
--
pkt_pts_time=3.488333
key_frame=1
pkt_pts_time=3.493333
--
pkt_pts_time=3.616667
key_frame=1
pkt_pts_time=3.621667
--
pkt_pts_time=3.738333
key_frame=1
pkt_pts_time=3.741667
--
pkt_pts_time=3.866667
key_frame=1
pkt_pts_time=3.871667
--
pkt_pts_time=3.988333
key_frame=1
pkt_pts_time=3.991667
--
pkt_pts_time=4.116667
key_frame=1
pkt_pts_time=4.120000
--
pkt_pts_time=4.236667
key_frame=1
pkt_pts_time=4.241667
--
pkt_pts_time=4.366667
key_frame=1
pkt_pts_time=4.370000
--
pkt_pts_time=4.486667
key_frame=1
pkt_pts_time=4.490000
--
pkt_pts_time=4.615000
key_frame=1
pkt_pts_time=4.620000
--
pkt_pts_time=4.736667
key_frame=1
pkt_pts_time=4.740000
--
pkt_pts_time=4.865000
key_frame=1
pkt_pts_time=4.868333
--
pkt_pts_time=4.985000
key_frame=1
pkt_pts_time=4.990000
--
pkt_pts_time=5.115000
key_frame=1
pkt_pts_time=5.118333
--
pkt_pts_time=5.235000
key_frame=1
pkt_pts_time=5.238333
--
pkt_pts_time=5.363333
key_frame=1
pkt_pts_time=5.368333
--
pkt_pts_time=5.485000
key_frame=1
pkt_pts_time=5.488333
--
pkt_pts_time=5.613333
key_frame=1
pkt_pts_time=5.616667
--
pkt_pts_time=5.733333
key_frame=1
pkt_pts_time=5.738333
--
pkt_pts_time=5.863333
key_frame=1
pkt_pts_time=5.866667
--
pkt_pts_time=5.983333
key_frame=1
pkt_pts_time=5.986667
--
pkt_pts_time=6.111667
key_frame=1
pkt_pts_time=6.116667
--
pkt_pts_time=6.233333
key_frame=1
pkt_pts_time=6.236667
--
pkt_pts_time=6.361667
key_frame=1
pkt_pts_time=6.365000
--
pkt_pts_time=6.481667
key_frame=1
pkt_pts_time=6.486667
--
pkt_pts_time=6.611667
key_frame=1
pkt_pts_time=6.615000
--
pkt_pts_time=6.731667
key_frame=1
pkt_pts_time=6.735000
--
pkt_pts_time=6.860000
key_frame=1
pkt_pts_time=6.865000
--
pkt_pts_time=6.981667
key_frame=1
pkt_pts_time=6.985000
--
pkt_pts_time=7.110000
key_frame=1
pkt_pts_time=7.113333
--
pkt_pts_time=7.230000
key_frame=1
pkt_pts_time=7.235000
--
pkt_pts_time=7.360000
key_frame=1
pkt_pts_time=7.363333
--
pkt_pts_time=7.480000
key_frame=1
pkt_pts_time=7.485000
--
pkt_pts_time=7.608333
key_frame=1
pkt_pts_time=7.613333
--
pkt_pts_time=7.730000
key_frame=1
pkt_pts_time=7.733333
--
pkt_pts_time=7.858333
key_frame=1
pkt_pts_time=7.863333
--
pkt_pts_time=7.978333
key_frame=1
pkt_pts_time=7.983333
--
pkt_pts_time=8.108333
key_frame=1
pkt_pts_time=8.111667
--
pkt_pts_time=8.228333
key_frame=1
pkt_pts_time=8.233333
--
pkt_pts_time=8.356667
key_frame=1
pkt_pts_time=8.361667
--
pkt_pts_time=8.478333
key_frame=1
pkt_pts_time=8.481667
--
pkt_pts_time=8.606667
key_frame=1
pkt_pts_time=8.611667
--
pkt_pts_time=8.726667
key_frame=1
pkt_pts_time=8.731667
--
pkt_pts_time=8.856667
key_frame=1
pkt_pts_time=8.860000
--
pkt_pts_time=8.976667
key_frame=1
pkt_pts_time=8.981667
--
pkt_pts_time=9.105000
key_frame=1
pkt_pts_time=9.110000
--
pkt_pts_time=9.226667
key_frame=1
pkt_pts_time=9.230000
--
pkt_pts_time=9.355000
key_frame=1
pkt_pts_time=9.360000
--
pkt_pts_time=9.475000
key_frame=1
pkt_pts_time=9.480000
--
pkt_pts_time=9.605000
key_frame=1
pkt_pts_time=9.608333
--
pkt_pts_time=9.725000
key_frame=1
pkt_pts_time=9.730000
--
pkt_pts_time=9.853333
key_frame=1
pkt_pts_time=9.858333
--
pkt_pts_time=9.975000
key_frame=1
pkt_pts_time=9.978333
--
pkt_pts_time=10.103333
key_frame=1
pkt_pts_time=10.108333
--
pkt_pts_time=10.223333
key_frame=1
pkt_pts_time=10.228333
--
pkt_pts_time=10.353333
key_frame=1
pkt_pts_time=10.356667
--
pkt_pts_time=10.473333
key_frame=1
pkt_pts_time=10.478333
--
pkt_pts_time=10.603333
key_frame=1
pkt_pts_time=10.606667
--
pkt_pts_time=10.723333
key_frame=1
pkt_pts_time=10.726667
--
pkt_pts_time=10.851667
key_frame=1
pkt_pts_time=10.856667
--
pkt_pts_time=10.973333
key_frame=1
pkt_pts_time=10.976667
--
pkt_pts_time=11.101667
key_frame=1
pkt_pts_time=11.105000
--
pkt_pts_time=11.221667
key_frame=1
pkt_pts_time=11.226667
--
pkt_pts_time=11.351667
key_frame=1
pkt_pts_time=11.355000
--
pkt_pts_time=11.471667
key_frame=1
pkt_pts_time=11.475000
--
pkt_pts_time=11.600000
key_frame=1
pkt_pts_time=11.605000
--
pkt_pts_time=11.721667
key_frame=1
pkt_pts_time=11.725000
--
pkt_pts_time=11.850000
key_frame=1
pkt_pts_time=11.853333
--
pkt_pts_time=11.970000
key_frame=1
pkt_pts_time=11.975000
--
pkt_pts_time=12.100000
key_frame=1
pkt_pts_time=12.103333
--
pkt_pts_time=12.220000
key_frame=1
pkt_pts_time=12.223333
--
pkt_pts_time=12.348333
key_frame=1
pkt_pts_time=12.353333
--
pkt_pts_time=12.470000
key_frame=1
pkt_pts_time=12.473333
--
pkt_pts_time=12.598333
key_frame=1
pkt_pts_time=12.601667
--
pkt_pts_time=12.718333
key_frame=1
pkt_pts_time=12.723333
--
pkt_pts_time=12.848333
key_frame=1
pkt_pts_time=12.851667
--
pkt_pts_time=12.968333
key_frame=1
pkt_pts_time=12.971667
--
pkt_pts_time=13.096667
key_frame=1
pkt_pts_time=13.101667
--
pkt_pts_time=13.218333
key_frame=1
pkt_pts_time=13.221667
--
pkt_pts_time=13.346667
key_frame=1
pkt_pts_time=13.350000
--
pkt_pts_time=13.466667
key_frame=1
pkt_pts_time=13.471667
--
pkt_pts_time=13.596667
key_frame=1
pkt_pts_time=13.600000
--
pkt_pts_time=13.716667
key_frame=1
pkt_pts_time=13.721667
--
pkt_pts_time=13.845000
key_frame=1
pkt_pts_time=13.850000
--
pkt_pts_time=13.966667
key_frame=1
pkt_pts_time=13.970000
--
pkt_pts_time=14.095000
key_frame=1
pkt_pts_time=14.100000
--
pkt_pts_time=14.215000
key_frame=1
pkt_pts_time=14.220000
--
pkt_pts_time=14.345000
key_frame=1
pkt_pts_time=14.348333
--
pkt_pts_time=14.465000
key_frame=1
pkt_pts_time=14.470000
--
pkt_pts_time=14.593333
key_frame=1
pkt_pts_time=14.598333
--
pkt_pts_time=14.715000
key_frame=1
pkt_pts_time=14.718333
--
pkt_pts_time=14.843333
key_frame=1
pkt_pts_time=14.848333
--
pkt_pts_time=14.963333
key_frame=1
pkt_pts_time=14.968333
--
pkt_pts_time=15.093333
key_frame=1
pkt_pts_time=15.096667
--
pkt_pts_time=15.213333
key_frame=1
pkt_pts_time=15.218333
--
pkt_pts_time=15.341667
key_frame=1
pkt_pts_time=15.346667
--
pkt_pts_time=15.463333
key_frame=1
pkt_pts_time=15.466667
--
pkt_pts_time=15.591667
key_frame=1
pkt_pts_time=15.596667
--
pkt_pts_time=15.711667
key_frame=1
pkt_pts_time=15.716667
--
pkt_pts_time=15.841667
key_frame=1
pkt_pts_time=15.845000
--
pkt_pts_time=15.961667
key_frame=1
pkt_pts_time=15.966667
--
pkt_pts_time=16.090000
key_frame=1
pkt_pts_time=16.095000
--
pkt_pts_time=16.211667
key_frame=1
pkt_pts_time=16.215000
--
pkt_pts_time=16.340000
key_frame=1
pkt_pts_time=16.345000
--
pkt_pts_time=16.460000
key_frame=1
pkt_pts_time=16.465000
--
pkt_pts_time=16.590000
key_frame=1
pkt_pts_time=16.593333
--
pkt_pts_time=16.710000
key_frame=1
pkt_pts_time=16.715000
--
pkt_pts_time=16.840000
key_frame=1
pkt_pts_time=16.843333
--
pkt_pts_time=16.960000
key_frame=1
pkt_pts_time=16.963333
--
pkt_pts_time=17.088333
key_frame=1
pkt_pts_time=17.093333
--
pkt_pts_time=17.210000
key_frame=1
pkt_pts_time=17.213333
--
pkt_pts_time=17.338333
key_frame=1
pkt_pts_time=17.341667
--
pkt_pts_time=17.458333
key_frame=1
pkt_pts_time=17.463333
--
pkt_pts_time=17.588333
key_frame=1
pkt_pts_time=17.591667
--
pkt_pts_time=17.708333
key_frame=1
pkt_pts_time=17.711667
--
pkt_pts_time=17.836667
key_frame=1
pkt_pts_time=17.841667
--
pkt_pts_time=17.958333
key_frame=1
pkt_pts_time=17.961667
--
pkt_pts_time=18.086667
key_frame=1
pkt_pts_time=18.090000
--
pkt_pts_time=18.206667
key_frame=1
pkt_pts_time=18.211667
--
pkt_pts_time=18.336667
key_frame=1
pkt_pts_time=18.340000
--
pkt_pts_time=18.456667
key_frame=1
pkt_pts_time=18.460000
--
pkt_pts_time=18.585000
key_frame=1
pkt_pts_time=18.590000
--
pkt_pts_time=18.706667
key_frame=1
pkt_pts_time=18.710000
--
pkt_pts_time=18.835000
key_frame=1
pkt_pts_time=18.838333
--
pkt_pts_time=18.955000
key_frame=1
pkt_pts_time=18.960000
--
pkt_pts_time=19.085000
key_frame=1
pkt_pts_time=19.088333
--
pkt_pts_time=19.205000
key_frame=1
pkt_pts_time=19.208333
--
pkt_pts_time=19.333333
key_frame=1
pkt_pts_time=19.338333
--
pkt_pts_time=19.455000
key_frame=1
pkt_pts_time=19.458333
--
pkt_pts_time=19.583333
key_frame=1
pkt_pts_time=19.586667
--
pkt_pts_time=19.703333
key_frame=1
pkt_pts_time=19.708333
--
pkt_pts_time=19.833333
key_frame=1
pkt_pts_time=19.836667
--
pkt_pts_time=19.953333
key_frame=1
pkt_pts_time=19.956667
--
pkt_pts_time=20.081667
key_frame=1
pkt_pts_time=20.086667
--
pkt_pts_time=20.203333
key_frame=1
pkt_pts_time=20.206667
--
pkt_pts_time=20.331667
key_frame=1
pkt_pts_time=20.336667
--
pkt_pts_time=20.451667
key_frame=1
pkt_pts_time=20.456667
--
pkt_pts_time=20.581667
key_frame=1
pkt_pts_time=20.585000
--
pkt_pts_time=20.701667
key_frame=1
pkt_pts_time=20.706667
--
pkt_pts_time=20.830000
key_frame=1
pkt_pts_time=20.835000
--
pkt_pts_time=20.951667
key_frame=1
pkt_pts_time=20.955000
--
pkt_pts_time=21.080000
key_frame=1
pkt_pts_time=21.085000
--
pkt_pts_time=21.200000
key_frame=1
pkt_pts_time=21.205000
--
pkt_pts_time=21.330000
key_frame=1
pkt_pts_time=21.333333
--
pkt_pts_time=21.450000
key_frame=1
pkt_pts_time=21.455000
--
pkt_pts_time=21.578333
key_frame=1
pkt_pts_time=21.583333
--
pkt_pts_time=21.700000
key_frame=1
pkt_pts_time=21.703333
--
pkt_pts_time=21.828333
key_frame=1
pkt_pts_time=21.833333
--
pkt_pts_time=21.948333
key_frame=1
pkt_pts_time=21.953333
--
pkt_pts_time=22.078333
key_frame=1
pkt_pts_time=22.081667
--
pkt_pts_time=22.198333
key_frame=1
pkt_pts_time=22.203333
--
pkt_pts_time=22.326667
key_frame=1
pkt_pts_time=22.331667
--
pkt_pts_time=22.448333
key_frame=1
pkt_pts_time=22.451667
--
pkt_pts_time=22.576667
key_frame=1
pkt_pts_time=22.581667
--
pkt_pts_time=22.696667
key_frame=1
pkt_pts_time=22.701667
--
pkt_pts_time=22.826667
key_frame=1
pkt_pts_time=22.830000
--
pkt_pts_time=22.946667
key_frame=1
pkt_pts_time=22.951667
--
pkt_pts_time=23.075000
key_frame=1
pkt_pts_time=23.080000
--
pkt_pts_time=23.196667
key_frame=1
pkt_pts_time=23.200000
--
pkt_pts_time=23.325000
key_frame=1
pkt_pts_time=23.330000
--
pkt_pts_time=23.446667
key_frame=1
pkt_pts_time=23.450000
--
pkt_pts_time=23.575000
key_frame=1
pkt_pts_time=23.578333
--
pkt_pts_time=23.695000
key_frame=1
pkt_pts_time=23.700000
--
pkt_pts_time=23.825000
key_frame=1
pkt_pts_time=23.828333
--
pkt_pts_time=23.945000
key_frame=1
pkt_pts_time=23.948333
--
pkt_pts_time=24.073333
key_frame=1
pkt_pts_time=24.078333
--
pkt_pts_time=24.195000
key_frame=1
pkt_pts_time=24.198333
--
pkt_pts_time=24.323333
key_frame=1
pkt_pts_time=24.326667
--
pkt_pts_time=24.443333
key_frame=1
pkt_pts_time=24.448333
--
pkt_pts_time=24.573333
key_frame=1
pkt_pts_time=24.576667
--
pkt_pts_time=24.693333
key_frame=1
pkt_pts_time=24.696667
--
pkt_pts_time=24.821667
key_frame=1
pkt_pts_time=24.826667
--
pkt_pts_time=24.943333
key_frame=1
pkt_pts_time=24.946667
--
pkt_pts_time=25.071667
key_frame=1
pkt_pts_time=25.075000
--
pkt_pts_time=25.191667
key_frame=1
pkt_pts_time=25.196667
--
pkt_pts_time=25.321667
key_frame=1
pkt_pts_time=25.325000
--
pkt_pts_time=25.441667
key_frame=1
pkt_pts_time=25.445000
--
pkt_pts_time=25.570000
key_frame=1
pkt_pts_time=25.575000
--
pkt_pts_time=25.691667
key_frame=1
pkt_pts_time=25.695000
--
pkt_pts_time=25.820000
key_frame=1
pkt_pts_time=25.823333
--
pkt_pts_time=25.940000
key_frame=1
pkt_pts_time=25.945000
--
pkt_pts_time=26.070000
key_frame=1
pkt_pts_time=26.073333
--
pkt_pts_time=26.190000
key_frame=1
pkt_pts_time=26.193333
--
pkt_pts_time=26.318333
key_frame=1
pkt_pts_time=26.323333
--
pkt_pts_time=26.440000
key_frame=1
pkt_pts_time=26.443333
--
pkt_pts_time=26.568333
key_frame=1
pkt_pts_time=26.571667
--
pkt_pts_time=26.688333
key_frame=1
pkt_pts_time=26.693333
--
pkt_pts_time=26.818333
key_frame=1
pkt_pts_time=26.821667
--
pkt_pts_time=26.938333
key_frame=1
pkt_pts_time=26.943333
--
pkt_pts_time=27.066667
key_frame=1
pkt_pts_time=27.071667
--
pkt_pts_time=27.188333
key_frame=1
pkt_pts_time=27.191667
--
pkt_pts_time=27.316667
key_frame=1
pkt_pts_time=27.321667
--
pkt_pts_time=27.436667
key_frame=1
pkt_pts_time=27.441667
--
pkt_pts_time=27.566667
key_frame=1
pkt_pts_time=27.570000
--
pkt_pts_time=27.686667
key_frame=1
pkt_pts_time=27.691667
--
pkt_pts_time=27.815000
key_frame=1
pkt_pts_time=27.820000
--
pkt_pts_time=27.936667
key_frame=1
pkt_pts_time=27.940000
--
pkt_pts_time=28.065000
key_frame=1
pkt_pts_time=28.070000
--
pkt_pts_time=28.185000
key_frame=1
pkt_pts_time=28.190000
--
pkt_pts_time=28.315000
key_frame=1
pkt_pts_time=28.318333
--
pkt_pts_time=28.435000
key_frame=1
pkt_pts_time=28.440000
--
pkt_pts_time=28.563333
key_frame=1
pkt_pts_time=28.568333
--
pkt_pts_time=28.685000
key_frame=1
pkt_pts_time=28.688333
--
pkt_pts_time=28.813333
key_frame=1
pkt_pts_time=28.818333
--
pkt_pts_time=28.933333
key_frame=1
pkt_pts_time=28.938333
--
pkt_pts_time=29.063333
key_frame=1
pkt_pts_time=29.066667
--
pkt_pts_time=29.183333
key_frame=1
pkt_pts_time=29.188333
--
pkt_pts_time=29.311667
key_frame=1
pkt_pts_time=29.316667
--
pkt_pts_time=29.433333
key_frame=1
pkt_pts_time=29.436667
--
pkt_pts_time=29.561667
key_frame=1
pkt_pts_time=29.566667
--
pkt_pts_time=29.681667
key_frame=1
pkt_pts_time=29.686667
--
pkt_pts_time=29.811667
key_frame=1
pkt_pts_time=29.815000
--
pkt_pts_time=29.931667
key_frame=1
pkt_pts_time=29.936667
--
pkt_pts_time=30.061667
key_frame=1
pkt_pts_time=30.065000
--
pkt_pts_time=30.181667
key_frame=1
pkt_pts_time=30.185000
--
pkt_pts_time=30.310000
key_frame=1
pkt_pts_time=30.315000
--
pkt_pts_time=30.431667
key_frame=1
pkt_pts_time=30.435000
--
pkt_pts_time=30.560000
key_frame=1
pkt_pts_time=30.563333
--
pkt_pts_time=30.680000
key_frame=1
pkt_pts_time=30.685000
--
pkt_pts_time=30.810000
key_frame=1
pkt_pts_time=30.813333
--
pkt_pts_time=30.930000
key_frame=1
pkt_pts_time=30.933333
--
pkt_pts_time=31.058333
key_frame=1
pkt_pts_time=31.063333
--
pkt_pts_time=31.180000
key_frame=1
pkt_pts_time=31.183333
--
pkt_pts_time=31.308333
key_frame=1
pkt_pts_time=31.311667
--
pkt_pts_time=31.428333
key_frame=1
pkt_pts_time=31.433333
--
pkt_pts_time=31.558333
key_frame=1
pkt_pts_time=31.561667
--
pkt_pts_time=31.678333
key_frame=1
pkt_pts_time=31.681667
--
pkt_pts_time=31.806667
key_frame=1
pkt_pts_time=31.811667
--
pkt_pts_time=31.928333
key_frame=1
pkt_pts_time=31.931667
--
pkt_pts_time=32.056667
key_frame=1
pkt_pts_time=32.060000
--
pkt_pts_time=32.176667
key_frame=1
pkt_pts_time=32.181667
--
pkt_pts_time=32.306667
key_frame=1
pkt_pts_time=32.310000
--
pkt_pts_time=32.426667
key_frame=1
pkt_pts_time=32.430000
--
pkt_pts_time=32.555000
key_frame=1
pkt_pts_time=32.560000
--
pkt_pts_time=32.676667
key_frame=1
pkt_pts_time=32.680000
--
pkt_pts_time=32.805000
key_frame=1
pkt_pts_time=32.808333
--
pkt_pts_time=32.925000
key_frame=1
pkt_pts_time=32.930000
--
pkt_pts_time=33.055000
key_frame=1
pkt_pts_time=33.058333
--
pkt_pts_time=33.175000
key_frame=1
pkt_pts_time=33.180000
--
pkt_pts_time=33.303333
key_frame=1
pkt_pts_time=33.308333
--
pkt_pts_time=33.425000
key_frame=1
pkt_pts_time=33.428333
--
pkt_pts_time=33.553333
key_frame=1
pkt_pts_time=33.558333
--
pkt_pts_time=33.673333
key_frame=1
pkt_pts_time=33.678333
--
pkt_pts_time=33.803333
key_frame=1
pkt_pts_time=33.806667
--
pkt_pts_time=33.923333
key_frame=1
pkt_pts_time=33.928333
--
pkt_pts_time=34.051667
key_frame=1
pkt_pts_time=34.056667
--
pkt_pts_time=34.173333
key_frame=1
pkt_pts_time=34.176667
--
pkt_pts_time=34.301667
key_frame=1
pkt_pts_time=34.306667
--
pkt_pts_time=34.421667
key_frame=1
pkt_pts_time=34.426667
--
pkt_pts_time=34.551667
key_frame=1
pkt_pts_time=34.555000
--
pkt_pts_time=34.671667
key_frame=1
pkt_pts_time=34.676667
--
pkt_pts_time=34.800000
key_frame=1
pkt_pts_time=34.805000
--
pkt_pts_time=34.921667
key_frame=1
pkt_pts_time=34.925000
--
pkt_pts_time=35.050000
key_frame=1
pkt_pts_time=35.055000
--
pkt_pts_time=35.170000
key_frame=1
pkt_pts_time=35.175000
--
pkt_pts_time=35.300000
key_frame=1
pkt_pts_time=35.303333
--
pkt_pts_time=35.420000
key_frame=1
pkt_pts_time=35.425000
--
pkt_pts_time=35.548333
key_frame=1
pkt_pts_time=35.553333
--
pkt_pts_time=35.670000
key_frame=1
pkt_pts_time=35.673333
--
pkt_pts_time=35.798333
key_frame=1
pkt_pts_time=35.803333
--
pkt_pts_time=35.918333
key_frame=1
pkt_pts_time=35.923333
--
pkt_pts_time=36.048333
key_frame=1
pkt_pts_time=36.051667
--
pkt_pts_time=36.168333
key_frame=1
pkt_pts_time=36.173333
--
pkt_pts_time=36.296667
key_frame=1
pkt_pts_time=36.301667
--
pkt_pts_time=36.418333
key_frame=1
pkt_pts_time=36.421667
--
pkt_pts_time=36.546667
key_frame=1
pkt_pts_time=36.551667
--
pkt_pts_time=36.668333
key_frame=1
pkt_pts_time=36.671667
--
pkt_pts_time=36.796667
key_frame=1
pkt_pts_time=36.800000
--
pkt_pts_time=36.916667
key_frame=1
pkt_pts_time=36.921667
--
pkt_pts_time=37.046667
key_frame=1
pkt_pts_time=37.050000
--
pkt_pts_time=37.166667
key_frame=1
pkt_pts_time=37.170000
--
pkt_pts_time=37.295000
key_frame=1
pkt_pts_time=37.300000
--
pkt_pts_time=37.416667
key_frame=1
pkt_pts_time=37.420000
--
pkt_pts_time=37.545000
key_frame=1
pkt_pts_time=37.548333
--
pkt_pts_time=37.665000
key_frame=1
pkt_pts_time=37.670000
--
pkt_pts_time=37.795000
key_frame=1
pkt_pts_time=37.798333
--
pkt_pts_time=37.915000
key_frame=1
pkt_pts_time=37.918333
--
pkt_pts_time=38.043333
key_frame=1
pkt_pts_time=38.048333
--
pkt_pts_time=38.165000
key_frame=1
pkt_pts_time=38.168333
--
pkt_pts_time=38.293333
key_frame=1
pkt_pts_time=38.296667
--
pkt_pts_time=38.413333
key_frame=1
pkt_pts_time=38.418333
--
pkt_pts_time=38.543333
key_frame=1
pkt_pts_time=38.546667
--
pkt_pts_time=38.663333
key_frame=1
pkt_pts_time=38.666667
--
pkt_pts_time=38.791667
key_frame=1
pkt_pts_time=38.796667
--
pkt_pts_time=38.913333
key_frame=1
pkt_pts_time=38.916667
--
pkt_pts_time=39.041667
key_frame=1
pkt_pts_time=39.045000
--
pkt_pts_time=39.161667
key_frame=1
pkt_pts_time=39.166667
--
pkt_pts_time=39.291667
key_frame=1
pkt_pts_time=39.295000
--
pkt_pts_time=39.411667
key_frame=1
pkt_pts_time=39.415000
--
pkt_pts_time=39.540000
key_frame=1
pkt_pts_time=39.545000
--
pkt_pts_time=39.661667
key_frame=1
pkt_pts_time=39.665000
--
pkt_pts_time=39.790000
key_frame=1
pkt_pts_time=39.793333
--
pkt_pts_time=39.910000
key_frame=1
pkt_pts_time=39.915000
--
pkt_pts_time=40.040000
key_frame=1
pkt_pts_time=40.043333
--
pkt_pts_time=40.160000
key_frame=1
pkt_pts_time=40.165000
--
pkt_pts_time=40.288333
key_frame=1
pkt_pts_time=40.293333
--
pkt_pts_time=40.410000
key_frame=1
pkt_pts_time=40.413333
--
pkt_pts_time=40.538333
key_frame=1
pkt_pts_time=40.543333
--
pkt_pts_time=40.658333
key_frame=1
pkt_pts_time=40.663333
--
pkt_pts_time=40.788333
key_frame=1
pkt_pts_time=40.791667
--
pkt_pts_time=40.908333
key_frame=1
pkt_pts_time=40.913333
--
pkt_pts_time=41.036667
key_frame=1
pkt_pts_time=41.041667
--
pkt_pts_time=41.158333
key_frame=1
pkt_pts_time=41.161667
--
pkt_pts_time=41.286667
key_frame=1
pkt_pts_time=41.291667
--
pkt_pts_time=41.406667
key_frame=1
pkt_pts_time=41.411667
--
pkt_pts_time=41.536667
key_frame=1
pkt_pts_time=41.540000
--
pkt_pts_time=41.656667
key_frame=1
pkt_pts_time=41.661667
--
pkt_pts_time=41.785000
key_frame=1
pkt_pts_time=41.790000
--
pkt_pts_time=41.906667
key_frame=1
pkt_pts_time=41.910000
--
pkt_pts_time=42.035000
key_frame=1
pkt_pts_time=42.040000
--
pkt_pts_time=42.155000
key_frame=1
pkt_pts_time=42.160000
--
pkt_pts_time=42.285000
key_frame=1
pkt_pts_time=42.288333
--
pkt_pts_time=42.405000
key_frame=1
pkt_pts_time=42.410000
--
pkt_pts_time=42.533333
key_frame=1
pkt_pts_time=42.538333
--
pkt_pts_time=42.655000
key_frame=1
pkt_pts_time=42.658333
--
pkt_pts_time=42.783333
key_frame=1
pkt_pts_time=42.788333
--
pkt_pts_time=42.905000
key_frame=1
pkt_pts_time=42.908333
--
pkt_pts_time=43.033333
key_frame=1
pkt_pts_time=43.036667
--
pkt_pts_time=43.153333
key_frame=1
pkt_pts_time=43.158333
--
pkt_pts_time=43.283333
key_frame=1
pkt_pts_time=43.286667
--
pkt_pts_time=43.403333
key_frame=1
pkt_pts_time=43.406667
--
pkt_pts_time=43.531667
key_frame=1
pkt_pts_time=43.536667
--
pkt_pts_time=43.653333
key_frame=1
pkt_pts_time=43.656667
--
pkt_pts_time=43.781667
key_frame=1
pkt_pts_time=43.785000
--
pkt_pts_time=43.901667
key_frame=1
pkt_pts_time=43.906667
--
pkt_pts_time=44.031667
key_frame=1
pkt_pts_time=44.035000
--
pkt_pts_time=44.151667
key_frame=1
pkt_pts_time=44.155000
--
pkt_pts_time=44.280000
key_frame=1
pkt_pts_time=44.285000
--
pkt_pts_time=44.401667
key_frame=1
pkt_pts_time=44.405000
--
pkt_pts_time=44.530000
key_frame=1
pkt_pts_time=44.533333
--
pkt_pts_time=44.650000
key_frame=1
pkt_pts_time=44.655000
--
pkt_pts_time=44.780000
key_frame=1
pkt_pts_time=44.783333
--
pkt_pts_time=44.900000
key_frame=1
pkt_pts_time=44.903333
--
pkt_pts_time=45.028333
key_frame=1
pkt_pts_time=45.033333
--
pkt_pts_time=45.150000
key_frame=1
pkt_pts_time=45.153333
--
pkt_pts_time=45.278333
key_frame=1
pkt_pts_time=45.281667
--
pkt_pts_time=45.398333
key_frame=1
pkt_pts_time=45.403333
--
pkt_pts_time=45.528333
key_frame=1
pkt_pts_time=45.531667
--
pkt_pts_time=45.648333
key_frame=1
pkt_pts_time=45.651667
--
pkt_pts_time=45.776667
key_frame=1
pkt_pts_time=45.781667
--
pkt_pts_time=45.898333
key_frame=1
pkt_pts_time=45.901667
--
pkt_pts_time=46.026667
key_frame=1
pkt_pts_time=46.031667
--
pkt_pts_time=46.146667
key_frame=1
pkt_pts_time=46.151667
--
pkt_pts_time=46.276667
key_frame=1
pkt_pts_time=46.280000
--
pkt_pts_time=46.396667
key_frame=1
pkt_pts_time=46.401667
--
pkt_pts_time=46.525000
key_frame=1
pkt_pts_time=46.530000
--
pkt_pts_time=46.646667
key_frame=1
pkt_pts_time=46.650000
--
pkt_pts_time=46.775000
key_frame=1
pkt_pts_time=46.780000
--
pkt_pts_time=46.895000
key_frame=1
pkt_pts_time=46.900000
--
pkt_pts_time=47.025000
key_frame=1
pkt_pts_time=47.028333
--
pkt_pts_time=47.145000
key_frame=1
pkt_pts_time=47.150000
--
pkt_pts_time=47.273333
key_frame=1
pkt_pts_time=47.278333
--
pkt_pts_time=47.395000
key_frame=1
pkt_pts_time=47.398333
--
pkt_pts_time=47.523333
key_frame=1
pkt_pts_time=47.528333
--
pkt_pts_time=47.643333
key_frame=1
pkt_pts_time=47.648333
--
pkt_pts_time=47.773333
key_frame=1
pkt_pts_time=47.776667
--
pkt_pts_time=47.893333
key_frame=1
pkt_pts_time=47.898333
--
pkt_pts_time=48.021667
key_frame=1
pkt_pts_time=48.026667
--
pkt_pts_time=48.143333
key_frame=1
pkt_pts_time=48.146667
--
pkt_pts_time=48.271667
key_frame=1
pkt_pts_time=48.276667
--
pkt_pts_time=48.391667
key_frame=1
pkt_pts_time=48.396667
--
pkt_pts_time=48.521667
key_frame=1
pkt_pts_time=48.525000
--
pkt_pts_time=48.641667
key_frame=1
pkt_pts_time=48.646667
--
pkt_pts_time=48.770000
key_frame=1
pkt_pts_time=48.775000
--
pkt_pts_time=48.891667
key_frame=1
pkt_pts_time=48.895000
--
pkt_pts_time=49.020000
key_frame=1
pkt_pts_time=49.025000
--
pkt_pts_time=49.141667
key_frame=1
pkt_pts_time=49.145000
--
pkt_pts_time=49.270000
key_frame=1
pkt_pts_time=49.273333
--
pkt_pts_time=49.390000
key_frame=1
pkt_pts_time=49.395000
--
pkt_pts_time=49.520000
key_frame=1
pkt_pts_time=49.523333
--
pkt_pts_time=49.640000
key_frame=1
pkt_pts_time=49.643333
--
pkt_pts_time=49.768333
key_frame=1
pkt_pts_time=49.773333
--
pkt_pts_time=49.890000
key_frame=1
pkt_pts_time=49.893333
--
pkt_pts_time=50.018333
key_frame=1
pkt_pts_time=50.021667
--
pkt_pts_time=50.138333
key_frame=1
pkt_pts_time=50.143333
--
pkt_pts_time=50.268333
key_frame=1
pkt_pts_time=50.271667
--
pkt_pts_time=50.388333
key_frame=1
pkt_pts_time=50.391667
--
pkt_pts_time=50.516667
key_frame=1
pkt_pts_time=50.521667
--
pkt_pts_time=50.638333
key_frame=1
pkt_pts_time=50.641667
--
pkt_pts_time=50.766667
key_frame=1
pkt_pts_time=50.770000
--
pkt_pts_time=50.886667
key_frame=1
pkt_pts_time=50.891667
--
pkt_pts_time=51.016667
key_frame=1
pkt_pts_time=51.020000
--
pkt_pts_time=51.136667
key_frame=1
pkt_pts_time=51.140000
--
pkt_pts_time=51.265000
key_frame=1
pkt_pts_time=51.270000
--
pkt_pts_time=51.386667
key_frame=1
pkt_pts_time=51.390000
--
pkt_pts_time=51.515000
key_frame=1
pkt_pts_time=51.518333
--
pkt_pts_time=51.635000
key_frame=1
pkt_pts_time=51.640000
--
pkt_pts_time=51.765000
key_frame=1
pkt_pts_time=51.768333
--
pkt_pts_time=51.885000
key_frame=1
pkt_pts_time=51.888333
--
pkt_pts_time=52.013333
key_frame=1
pkt_pts_time=52.018333
--
pkt_pts_time=52.135000
key_frame=1
pkt_pts_time=52.138333
--
pkt_pts_time=52.263333
key_frame=1
pkt_pts_time=52.266667
--
pkt_pts_time=52.383333
key_frame=1
pkt_pts_time=52.388333
--
pkt_pts_time=52.513333
key_frame=1
pkt_pts_time=52.516667
--
pkt_pts_time=52.633333
key_frame=1
pkt_pts_time=52.638333
--
pkt_pts_time=52.761667
key_frame=1
pkt_pts_time=52.766667
--
pkt_pts_time=52.883333
key_frame=1
pkt_pts_time=52.886667
--
pkt_pts_time=53.011667
key_frame=1
pkt_pts_time=53.016667
--
pkt_pts_time=53.131667
key_frame=1
pkt_pts_time=53.136667
--
pkt_pts_time=53.261667
key_frame=1
pkt_pts_time=53.265000
--
pkt_pts_time=53.381667
key_frame=1
pkt_pts_time=53.386667
--
pkt_pts_time=53.510000
key_frame=1
pkt_pts_time=53.515000
--
pkt_pts_time=53.631667
key_frame=1
pkt_pts_time=53.635000
--
pkt_pts_time=53.760000
key_frame=1
pkt_pts_time=53.765000
--
pkt_pts_time=53.880000
key_frame=1
pkt_pts_time=53.885000
--
pkt_pts_time=54.010000
key_frame=1
pkt_pts_time=54.013333
--
pkt_pts_time=54.130000
key_frame=1
pkt_pts_time=54.135000
--
pkt_pts_time=54.258333
key_frame=1
pkt_pts_time=54.263333
--
pkt_pts_time=54.380000
key_frame=1
pkt_pts_time=54.383333
--
pkt_pts_time=54.508333
key_frame=1
pkt_pts_time=54.513333
--
pkt_pts_time=54.628333
key_frame=1
pkt_pts_time=54.633333
--
pkt_pts_time=54.758333
key_frame=1
pkt_pts_time=54.761667
--
pkt_pts_time=54.878333
key_frame=1
pkt_pts_time=54.883333
--
pkt_pts_time=55.006667
key_frame=1
pkt_pts_time=55.011667
--
pkt_pts_time=55.128333
key_frame=1
pkt_pts_time=55.131667
--
pkt_pts_time=55.256667
key_frame=1
pkt_pts_time=55.261667
--
pkt_pts_time=55.376667
key_frame=1
pkt_pts_time=55.381667
--
pkt_pts_time=55.506667
key_frame=1
pkt_pts_time=55.510000
--
pkt_pts_time=55.626667
key_frame=1
pkt_pts_time=55.631667
--
pkt_pts_time=55.756667
key_frame=1
pkt_pts_time=55.760000
--
pkt_pts_time=55.876667
key_frame=1
pkt_pts_time=55.880000
--
pkt_pts_time=56.005000
key_frame=1
pkt_pts_time=56.010000
--
pkt_pts_time=56.126667
key_frame=1
pkt_pts_time=56.130000
--
pkt_pts_time=56.255000
key_frame=1
pkt_pts_time=56.258333
--
pkt_pts_time=56.375000
key_frame=1
pkt_pts_time=56.380000
--
pkt_pts_time=56.505000
key_frame=1
pkt_pts_time=56.508333
--
pkt_pts_time=56.625000
key_frame=1
pkt_pts_time=56.628333
--
pkt_pts_time=56.753333
key_frame=1
pkt_pts_time=56.758333
--
pkt_pts_time=56.875000
key_frame=1
pkt_pts_time=56.878333
--
pkt_pts_time=57.003333
key_frame=1
pkt_pts_time=57.006667
--
pkt_pts_time=57.123333
key_frame=1
pkt_pts_time=57.128333
--
pkt_pts_time=57.253333
key_frame=1
pkt_pts_time=57.256667
--
pkt_pts_time=57.373333
key_frame=1
pkt_pts_time=57.376667
--
pkt_pts_time=57.501667
key_frame=1
pkt_pts_time=57.506667
--
pkt_pts_time=57.623333
key_frame=1
pkt_pts_time=57.626667
--
pkt_pts_time=57.751667
key_frame=1
pkt_pts_time=57.755000
--
pkt_pts_time=57.871667
key_frame=1
pkt_pts_time=57.876667
--
pkt_pts_time=58.001667
key_frame=1
pkt_pts_time=58.005000
--
pkt_pts_time=58.121667
key_frame=1
pkt_pts_time=58.125000
--
pkt_pts_time=58.250000
key_frame=1
pkt_pts_time=58.255000
--
pkt_pts_time=58.371667
key_frame=1
pkt_pts_time=58.375000
--
pkt_pts_time=58.500000
key_frame=1
pkt_pts_time=58.503333
--
pkt_pts_time=58.620000
key_frame=1
pkt_pts_time=58.625000
--
pkt_pts_time=58.750000
key_frame=1
pkt_pts_time=58.753333
--
pkt_pts_time=58.870000
key_frame=1
pkt_pts_time=58.875000
--
pkt_pts_time=58.998333
key_frame=1
pkt_pts_time=59.003333
--
pkt_pts_time=59.120000
key_frame=1
pkt_pts_time=59.123333
--
pkt_pts_time=59.248333
key_frame=1
pkt_pts_time=59.253333
--
pkt_pts_time=59.368333
key_frame=1
pkt_pts_time=59.373333
--
pkt_pts_time=59.498333
key_frame=1
pkt_pts_time=59.501667
--
pkt_pts_time=59.618333
key_frame=1
pkt_pts_time=59.623333
--
pkt_pts_time=59.746667
key_frame=1
pkt_pts_time=59.751667
--
pkt_pts_time=59.868333
key_frame=1
pkt_pts_time=59.871667
--
pkt_pts_time=59.996667
key_frame=1
pkt_pts_time=60.001667
--
pkt_pts_time=60.116667
key_frame=1
pkt_pts_time=60.121667
--
pkt_pts_time=60.246667
key_frame=1
pkt_pts_time=60.250000
--
pkt_pts_time=60.366667
key_frame=1
pkt_pts_time=60.371667
--
pkt_pts_time=60.495000
key_frame=1
pkt_pts_time=60.500000
--
pkt_pts_time=60.616667
key_frame=1
pkt_pts_time=60.620000
--
pkt_pts_time=60.745000
key_frame=1
pkt_pts_time=60.750000
--
pkt_pts_time=60.865000
key_frame=1
pkt_pts_time=60.870000
--
pkt_pts_time=60.995000
key_frame=1
pkt_pts_time=60.998333
--
pkt_pts_time=61.115000
key_frame=1
pkt_pts_time=61.120000
--
pkt_pts_time=61.243333
key_frame=1
pkt_pts_time=61.248333
--
pkt_pts_time=61.365000
key_frame=1
pkt_pts_time=61.368333
--
pkt_pts_time=61.493333
key_frame=1
pkt_pts_time=61.498333
--
pkt_pts_time=61.613333
key_frame=1
pkt_pts_time=61.618333
--
pkt_pts_time=61.743333
key_frame=1
pkt_pts_time=61.746667
--
pkt_pts_time=61.863333
key_frame=1
pkt_pts_time=61.868333
--
pkt_pts_time=61.991667
key_frame=1
pkt_pts_time=61.996667
--
pkt_pts_time=62.113333
key_frame=1
pkt_pts_time=62.116667
--
pkt_pts_time=62.241667
key_frame=1
pkt_pts_time=62.246667
--
pkt_pts_time=62.363333
key_frame=1
pkt_pts_time=62.366667
--
pkt_pts_time=62.491667
key_frame=1
pkt_pts_time=62.495000
--
pkt_pts_time=62.611667
key_frame=1
pkt_pts_time=62.616667
--
pkt_pts_time=62.741667
key_frame=1
pkt_pts_time=62.745000
--
pkt_pts_time=62.861667
key_frame=1
pkt_pts_time=62.865000
--
pkt_pts_time=62.990000
key_frame=1
pkt_pts_time=62.995000
--
pkt_pts_time=63.111667
key_frame=1
pkt_pts_time=63.115000
--
pkt_pts_time=63.240000
key_frame=1
pkt_pts_time=63.243333
--
pkt_pts_time=63.360000
key_frame=1
pkt_pts_time=63.365000
--
pkt_pts_time=63.490000
key_frame=1
pkt_pts_time=63.493333
--
pkt_pts_time=63.610000
key_frame=1
pkt_pts_time=63.613333
--
pkt_pts_time=63.738333
key_frame=1
pkt_pts_time=63.743333
--
pkt_pts_time=63.860000
key_frame=1
pkt_pts_time=63.863333
--
pkt_pts_time=63.988333
key_frame=1
pkt_pts_time=63.991667
--
pkt_pts_time=64.108333
key_frame=1
pkt_pts_time=64.113333
--
pkt_pts_time=64.238333
key_frame=1
pkt_pts_time=64.241667
--
pkt_pts_time=64.358333
key_frame=1
pkt_pts_time=64.361667
--
pkt_pts_time=64.486667
key_frame=1
pkt_pts_time=64.491667
--
pkt_pts_time=64.608333
key_frame=1
pkt_pts_time=64.611667
--
pkt_pts_time=64.736667
key_frame=1
pkt_pts_time=64.740000
--
pkt_pts_time=64.856667
key_frame=1
pkt_pts_time=64.861667
--
pkt_pts_time=64.986667
key_frame=1
pkt_pts_time=64.990000
--
pkt_pts_time=65.106667
key_frame=1
pkt_pts_time=65.110000
--
pkt_pts_time=65.235000
key_frame=1
pkt_pts_time=65.240000
--
pkt_pts_time=65.356667
key_frame=1
pkt_pts_time=65.360000
--
pkt_pts_time=65.485000
key_frame=1
pkt_pts_time=65.488333
--
pkt_pts_time=65.605000
key_frame=1
pkt_pts_time=65.610000
--
pkt_pts_time=65.735000
key_frame=1
pkt_pts_time=65.738333
--
pkt_pts_time=65.855000
key_frame=1
pkt_pts_time=65.860000
--
pkt_pts_time=65.983333
key_frame=1
pkt_pts_time=65.988333
--
pkt_pts_time=66.105000
key_frame=1
pkt_pts_time=66.108333
--
pkt_pts_time=66.233333
key_frame=1
pkt_pts_time=66.238333
--
pkt_pts_time=66.353333
key_frame=1
pkt_pts_time=66.358333
--
pkt_pts_time=66.483333
key_frame=1
pkt_pts_time=66.486667
--
pkt_pts_time=66.603333
key_frame=1
pkt_pts_time=66.608333
--
pkt_pts_time=66.731667
key_frame=1
pkt_pts_time=66.736667
--
pkt_pts_time=66.853333
key_frame=1
pkt_pts_time=66.856667
--
pkt_pts_time=66.981667
key_frame=1
pkt_pts_time=66.986667
--
pkt_pts_time=67.101667
key_frame=1
pkt_pts_time=67.106667
--
pkt_pts_time=67.231667
key_frame=1
pkt_pts_time=67.235000
--
pkt_pts_time=67.351667
key_frame=1
pkt_pts_time=67.356667
--
pkt_pts_time=67.480000
key_frame=1
pkt_pts_time=67.485000
--
pkt_pts_time=67.601667
key_frame=1
pkt_pts_time=67.605000
--
pkt_pts_time=67.730000
key_frame=1
pkt_pts_time=67.735000
--
pkt_pts_time=67.850000
key_frame=1
pkt_pts_time=67.855000
--
pkt_pts_time=67.980000
key_frame=1
pkt_pts_time=67.983333
--
pkt_pts_time=68.100000
key_frame=1
pkt_pts_time=68.105000
--
pkt_pts_time=68.228333
key_frame=1
pkt_pts_time=68.233333
--
pkt_pts_time=68.350000
key_frame=1
pkt_pts_time=68.353333
--
pkt_pts_time=68.478333
key_frame=1
pkt_pts_time=68.483333
--
pkt_pts_time=68.600000
key_frame=1
pkt_pts_time=68.603333
--
pkt_pts_time=68.728333
key_frame=1
pkt_pts_time=68.731667
--
pkt_pts_time=68.848333
key_frame=1
pkt_pts_time=68.853333
--
pkt_pts_time=68.978333
key_frame=1
pkt_pts_time=68.981667
--
pkt_pts_time=69.098333
key_frame=1
pkt_pts_time=69.101667
--
pkt_pts_time=69.226667
key_frame=1
pkt_pts_time=69.231667
--
pkt_pts_time=69.348333
key_frame=1
pkt_pts_time=69.351667
--
pkt_pts_time=69.476667
key_frame=1
pkt_pts_time=69.480000
--
pkt_pts_time=69.596667
key_frame=1
pkt_pts_time=69.601667
--
pkt_pts_time=69.726667
key_frame=1
pkt_pts_time=69.730000
--
pkt_pts_time=69.846667
key_frame=1
pkt_pts_time=69.850000
--
pkt_pts_time=69.975000
key_frame=1
pkt_pts_time=69.980000
--
pkt_pts_time=70.096667
key_frame=1
pkt_pts_time=70.100000
--
pkt_pts_time=70.225000
key_frame=1
pkt_pts_time=70.228333
--
pkt_pts_time=70.345000
key_frame=1
pkt_pts_time=70.350000
--
pkt_pts_time=70.475000
key_frame=1
pkt_pts_time=70.478333
--
pkt_pts_time=70.595000
key_frame=1
pkt_pts_time=70.598333
--
pkt_pts_time=70.723333
key_frame=1
pkt_pts_time=70.728333
--
pkt_pts_time=70.845000
key_frame=1
pkt_pts_time=70.848333
--
pkt_pts_time=70.973333
key_frame=1
pkt_pts_time=70.976667
--
pkt_pts_time=71.093333
key_frame=1
pkt_pts_time=71.098333
--
pkt_pts_time=71.223333
key_frame=1
pkt_pts_time=71.226667
--
pkt_pts_time=71.343333
key_frame=1
pkt_pts_time=71.346667
--
pkt_pts_time=71.471667
key_frame=1
pkt_pts_time=71.476667
--
pkt_pts_time=71.593333
key_frame=1
pkt_pts_time=71.596667
--
pkt_pts_time=71.721667
key_frame=1
pkt_pts_time=71.725000
--
pkt_pts_time=71.841667
key_frame=1
pkt_pts_time=71.846667
--
pkt_pts_time=71.971667
key_frame=1
pkt_pts_time=71.975000
--
pkt_pts_time=72.091667
key_frame=1
pkt_pts_time=72.096667
--
pkt_pts_time=72.220000
key_frame=1
pkt_pts_time=72.225000
--
pkt_pts_time=72.341667
key_frame=1
pkt_pts_time=72.345000
--
pkt_pts_time=72.470000
key_frame=1
pkt_pts_time=72.475000
--
pkt_pts_time=72.590000
key_frame=1
pkt_pts_time=72.595000
--
pkt_pts_time=72.720000
key_frame=1
pkt_pts_time=72.723333
--
pkt_pts_time=72.840000
key_frame=1
pkt_pts_time=72.845000
--
pkt_pts_time=72.968333
key_frame=1
pkt_pts_time=72.973333
--
pkt_pts_time=73.090000
key_frame=1
pkt_pts_time=73.093333
--
pkt_pts_time=73.218333
key_frame=1
pkt_pts_time=73.223333
--
pkt_pts_time=73.338333
key_frame=1
pkt_pts_time=73.343333
--
pkt_pts_time=73.468333
key_frame=1
pkt_pts_time=73.471667
--
pkt_pts_time=73.588333
key_frame=1
pkt_pts_time=73.593333
--
pkt_pts_time=73.716667
key_frame=1
pkt_pts_time=73.721667
--
pkt_pts_time=73.838333
key_frame=1
pkt_pts_time=73.841667
--
pkt_pts_time=73.966667
key_frame=1
pkt_pts_time=73.971667
--
pkt_pts_time=74.086667
key_frame=1
pkt_pts_time=74.091667
--
pkt_pts_time=74.216667
key_frame=1
pkt_pts_time=74.220000
--
pkt_pts_time=74.336667
key_frame=1
pkt_pts_time=74.341667
--
pkt_pts_time=74.465000
key_frame=1
pkt_pts_time=74.470000
--
pkt_pts_time=74.586667
key_frame=1
pkt_pts_time=74.590000
--
pkt_pts_time=74.715000
key_frame=1
pkt_pts_time=74.720000
--
pkt_pts_time=74.835000
key_frame=1
pkt_pts_time=74.840000
--
pkt_pts_time=74.965000
key_frame=1
pkt_pts_time=74.968333
--
pkt_pts_time=75.085000
key_frame=1
pkt_pts_time=75.090000
--
pkt_pts_time=75.215000
key_frame=1
pkt_pts_time=75.218333
--
pkt_pts_time=75.335000
key_frame=1
pkt_pts_time=75.338333
--
pkt_pts_time=75.463333
key_frame=1
pkt_pts_time=75.468333
--
pkt_pts_time=75.585000
key_frame=1
pkt_pts_time=75.588333
--
pkt_pts_time=75.713333
key_frame=1
pkt_pts_time=75.716667
--
pkt_pts_time=75.833333
key_frame=1
pkt_pts_time=75.838333
--
pkt_pts_time=75.963333
key_frame=1
pkt_pts_time=75.966667
--
pkt_pts_time=76.083333
key_frame=1
pkt_pts_time=76.086667
--
pkt_pts_time=76.211667
key_frame=1
pkt_pts_time=76.216667
--
pkt_pts_time=76.333333
key_frame=1
pkt_pts_time=76.336667
--
pkt_pts_time=76.461667
key_frame=1
pkt_pts_time=76.465000
--
pkt_pts_time=76.581667
key_frame=1
pkt_pts_time=76.586667
--
pkt_pts_time=76.711667
key_frame=1
pkt_pts_time=76.715000
--
pkt_pts_time=76.831667
key_frame=1
pkt_pts_time=76.835000
--
pkt_pts_time=76.960000
key_frame=1
pkt_pts_time=76.965000
--
pkt_pts_time=77.081667
key_frame=1
pkt_pts_time=77.085000
--
pkt_pts_time=77.210000
key_frame=1
pkt_pts_time=77.213333
--
pkt_pts_time=77.330000
key_frame=1
pkt_pts_time=77.335000
--
pkt_pts_time=77.460000
key_frame=1
pkt_pts_time=77.463333
--
pkt_pts_time=77.580000
key_frame=1
pkt_pts_time=77.583333
--
pkt_pts_time=77.708333
key_frame=1
pkt_pts_time=77.713333
--
pkt_pts_time=77.830000
key_frame=1
pkt_pts_time=77.833333
--
pkt_pts_time=77.958333
key_frame=1
pkt_pts_time=77.961667
--
pkt_pts_time=78.078333
key_frame=1
pkt_pts_time=78.083333
--
pkt_pts_time=78.208333
key_frame=1
pkt_pts_time=78.211667
--
pkt_pts_time=78.328333
key_frame=1
pkt_pts_time=78.333333
--
pkt_pts_time=78.456667
key_frame=1
pkt_pts_time=78.461667
--
pkt_pts_time=78.578333
key_frame=1
pkt_pts_time=78.581667
--
pkt_pts_time=78.706667
key_frame=1
pkt_pts_time=78.711667
--
pkt_pts_time=78.826667
key_frame=1
pkt_pts_time=78.831667
--
pkt_pts_time=78.956667
key_frame=1
pkt_pts_time=78.960000
--
pkt_pts_time=79.076667
key_frame=1
pkt_pts_time=79.081667
--
pkt_pts_time=79.205000
key_frame=1
pkt_pts_time=79.210000
--
pkt_pts_time=79.326667
key_frame=1
pkt_pts_time=79.330000
--
pkt_pts_time=79.455000
key_frame=1
pkt_pts_time=79.460000
--
pkt_pts_time=79.575000
key_frame=1
pkt_pts_time=79.580000
--
pkt_pts_time=79.705000
key_frame=1
pkt_pts_time=79.708333
--
pkt_pts_time=79.825000
key_frame=1
pkt_pts_time=79.830000
--
pkt_pts_time=79.953333
key_frame=1
pkt_pts_time=79.958333
--
pkt_pts_time=80.075000
key_frame=1
pkt_pts_time=80.078333
--
pkt_pts_time=80.203333
key_frame=1
pkt_pts_time=80.208333
--
pkt_pts_time=80.323333
key_frame=1
pkt_pts_time=80.328333
--
pkt_pts_time=80.453333
key_frame=1
pkt_pts_time=80.456667
--
pkt_pts_time=80.573333
key_frame=1
pkt_pts_time=80.578333
--
pkt_pts_time=80.701667
key_frame=1
pkt_pts_time=80.706667
--
pkt_pts_time=80.823333
key_frame=1
pkt_pts_time=80.826667
--
pkt_pts_time=80.951667
key_frame=1
pkt_pts_time=80.956667
--
pkt_pts_time=81.071667
key_frame=1
pkt_pts_time=81.076667
--
pkt_pts_time=81.201667
key_frame=1
pkt_pts_time=81.205000
--
pkt_pts_time=81.321667
key_frame=1
pkt_pts_time=81.326667
--
pkt_pts_time=81.450000
key_frame=1
pkt_pts_time=81.455000
--
pkt_pts_time=81.571667
key_frame=1
pkt_pts_time=81.575000
--
pkt_pts_time=81.700000
key_frame=1
pkt_pts_time=81.705000
--
pkt_pts_time=81.821667
key_frame=1
pkt_pts_time=81.825000
--
pkt_pts_time=81.950000
key_frame=1
pkt_pts_time=81.953333
--
pkt_pts_time=82.070000
key_frame=1
pkt_pts_time=82.075000
--
pkt_pts_time=82.200000
key_frame=1
pkt_pts_time=82.203333
--
pkt_pts_time=82.320000
key_frame=1
pkt_pts_time=82.323333
--
pkt_pts_time=82.448333
key_frame=1
pkt_pts_time=82.453333
--
pkt_pts_time=82.570000
key_frame=1
pkt_pts_time=82.573333
--
pkt_pts_time=82.698333
key_frame=1
pkt_pts_time=82.701667
--
pkt_pts_time=82.818333
key_frame=1
pkt_pts_time=82.823333
--
pkt_pts_time=82.948333
key_frame=1
pkt_pts_time=82.951667
--
pkt_pts_time=83.068333
key_frame=1
pkt_pts_time=83.071667
--
pkt_pts_time=83.196667
key_frame=1
pkt_pts_time=83.201667
--
pkt_pts_time=83.318333
key_frame=1
pkt_pts_time=83.321667
--
pkt_pts_time=83.446667
key_frame=1
pkt_pts_time=83.450000
--
pkt_pts_time=83.566667
key_frame=1
pkt_pts_time=83.571667
--
pkt_pts_time=83.696667
key_frame=1
pkt_pts_time=83.700000
--
pkt_pts_time=83.816667
key_frame=1
pkt_pts_time=83.820000
--
pkt_pts_time=83.945000
key_frame=1
pkt_pts_time=83.950000
--
pkt_pts_time=84.066667
key_frame=1
pkt_pts_time=84.070000
--
pkt_pts_time=84.195000
key_frame=1
pkt_pts_time=84.198333
--
pkt_pts_time=84.315000
key_frame=1
pkt_pts_time=84.320000
--
pkt_pts_time=84.445000
key_frame=1
pkt_pts_time=84.448333
--
pkt_pts_time=84.565000
key_frame=1
pkt_pts_time=84.568333
--
pkt_pts_time=84.693333
key_frame=1
pkt_pts_time=84.698333
--
pkt_pts_time=84.815000
key_frame=1
pkt_pts_time=84.818333
--
pkt_pts_time=84.943333
key_frame=1
pkt_pts_time=84.948333
--
pkt_pts_time=85.063333
key_frame=1
pkt_pts_time=85.068333
--
pkt_pts_time=85.193333
key_frame=1
pkt_pts_time=85.196667
--
pkt_pts_time=85.313333
key_frame=1
pkt_pts_time=85.318333
--
pkt_pts_time=85.441667
key_frame=1
pkt_pts_time=85.446667
--
pkt_pts_time=85.563333
key_frame=1
pkt_pts_time=85.566667
--
pkt_pts_time=85.691667
key_frame=1
pkt_pts_time=85.696667
--
pkt_pts_time=85.811667
key_frame=1
pkt_pts_time=85.816667
--
pkt_pts_time=85.941667
key_frame=1
pkt_pts_time=85.945000
--
pkt_pts_time=86.061667
key_frame=1
pkt_pts_time=86.066667
--
pkt_pts_time=86.190000
key_frame=1
pkt_pts_time=86.195000
--
pkt_pts_time=86.311667
key_frame=1
pkt_pts_time=86.315000
--
pkt_pts_time=86.440000
key_frame=1
pkt_pts_time=86.445000
--
pkt_pts_time=86.560000
key_frame=1
pkt_pts_time=86.565000
--
pkt_pts_time=86.690000
key_frame=1
pkt_pts_time=86.693333
--
pkt_pts_time=86.810000
key_frame=1
pkt_pts_time=86.815000
--
pkt_pts_time=86.938333
key_frame=1
pkt_pts_time=86.943333
--
pkt_pts_time=87.060000
key_frame=1
pkt_pts_time=87.063333
--
pkt_pts_time=87.188333
key_frame=1
pkt_pts_time=87.193333
--
pkt_pts_time=87.308333
key_frame=1
pkt_pts_time=87.313333
--
pkt_pts_time=87.438333
key_frame=1
pkt_pts_time=87.441667
--
pkt_pts_time=87.558333
key_frame=1
pkt_pts_time=87.563333
--
pkt_pts_time=87.686667
key_frame=1
pkt_pts_time=87.691667
--
pkt_pts_time=87.808333
key_frame=1
pkt_pts_time=87.811667
--
pkt_pts_time=87.936667
key_frame=1
pkt_pts_time=87.941667
--
pkt_pts_time=88.058333
key_frame=1
pkt_pts_time=88.061667
--
pkt_pts_time=88.186667
key_frame=1
pkt_pts_time=88.190000
--
pkt_pts_time=88.306667
key_frame=1
pkt_pts_time=88.311667
--
pkt_pts_time=88.436667
key_frame=1
pkt_pts_time=88.440000
--
pkt_pts_time=88.556667
key_frame=1
pkt_pts_time=88.560000
--
pkt_pts_time=88.685000
key_frame=1
pkt_pts_time=88.690000
--
pkt_pts_time=88.806667
key_frame=1
pkt_pts_time=88.810000
--
pkt_pts_time=88.935000
key_frame=1
pkt_pts_time=88.938333
--
pkt_pts_time=89.055000
key_frame=1
pkt_pts_time=89.060000
--
pkt_pts_time=89.185000
key_frame=1
pkt_pts_time=89.188333
--
pkt_pts_time=89.305000
key_frame=1
pkt_pts_time=89.308333
--
pkt_pts_time=89.433333
key_frame=1
pkt_pts_time=89.438333
--
pkt_pts_time=89.555000
key_frame=1
pkt_pts_time=89.558333
--
pkt_pts_time=89.683333
key_frame=1
pkt_pts_time=89.686667
--
pkt_pts_time=89.803333
key_frame=1
pkt_pts_time=89.808333
--
pkt_pts_time=89.933333
key_frame=1
pkt_pts_time=89.936667
--
pkt_pts_time=90.053333
key_frame=1
pkt_pts_time=90.056667
--
pkt_pts_time=90.181667
key_frame=1
pkt_pts_time=90.186667
--
pkt_pts_time=90.303333
key_frame=1
pkt_pts_time=90.306667
--
pkt_pts_time=90.431667
key_frame=1
pkt_pts_time=90.435000
--
pkt_pts_time=90.551667
key_frame=1
pkt_pts_time=90.556667
--
pkt_pts_time=90.681667
key_frame=1
pkt_pts_time=90.685000
--
pkt_pts_time=90.801667
key_frame=1
pkt_pts_time=90.805000
--
pkt_pts_time=90.930000
key_frame=1
pkt_pts_time=90.935000
--
pkt_pts_time=91.051667
key_frame=1
pkt_pts_time=91.055000
--
pkt_pts_time=91.180000
key_frame=1
pkt_pts_time=91.183333
--
pkt_pts_time=91.300000
key_frame=1
pkt_pts_time=91.305000
--
pkt_pts_time=91.430000
key_frame=1
pkt_pts_time=91.433333
--
pkt_pts_time=91.550000
key_frame=1
pkt_pts_time=91.555000
--
pkt_pts_time=91.678333
key_frame=1
pkt_pts_time=91.683333
--
pkt_pts_time=91.800000
key_frame=1
pkt_pts_time=91.803333
--
pkt_pts_time=91.928333
key_frame=1
pkt_pts_time=91.933333
--
pkt_pts_time=92.048333
key_frame=1
pkt_pts_time=92.053333
--
pkt_pts_time=92.178333
key_frame=1
pkt_pts_time=92.181667
--
pkt_pts_time=92.298333
key_frame=1
pkt_pts_time=92.303333
--
pkt_pts_time=92.426667
key_frame=1
pkt_pts_time=92.431667
--
pkt_pts_time=92.548333
key_frame=1
pkt_pts_time=92.551667
--
pkt_pts_time=92.676667
key_frame=1
pkt_pts_time=92.681667
--
pkt_pts_time=92.796667
key_frame=1
pkt_pts_time=92.801667
--
pkt_pts_time=92.926667
key_frame=1
pkt_pts_time=92.930000
--
pkt_pts_time=93.046667
key_frame=1
pkt_pts_time=93.051667
--
pkt_pts_time=93.175000
key_frame=1
pkt_pts_time=93.180000
--
pkt_pts_time=93.296667
key_frame=1
pkt_pts_time=93.300000
--
pkt_pts_time=93.425000
key_frame=1
pkt_pts_time=93.430000
--
pkt_pts_time=93.545000
key_frame=1
pkt_pts_time=93.550000
--
pkt_pts_time=93.675000
key_frame=1
pkt_pts_time=93.678333
--
pkt_pts_time=93.795000
key_frame=1
pkt_pts_time=93.800000
--
pkt_pts_time=93.923333
key_frame=1
pkt_pts_time=93.928333
--
pkt_pts_time=94.045000
key_frame=1
pkt_pts_time=94.048333
--
pkt_pts_time=94.173333
key_frame=1
pkt_pts_time=94.178333
--
pkt_pts_time=94.295000
key_frame=1
pkt_pts_time=94.298333
--
pkt_pts_time=94.423333
key_frame=1
pkt_pts_time=94.426667
--
pkt_pts_time=94.543333
key_frame=1
pkt_pts_time=94.548333
--
pkt_pts_time=94.673333
key_frame=1
pkt_pts_time=94.676667
--
pkt_pts_time=94.793333
key_frame=1
pkt_pts_time=94.796667
--
pkt_pts_time=94.921667
key_frame=1
pkt_pts_time=94.926667
--
pkt_pts_time=95.043333
key_frame=1
pkt_pts_time=95.046667
--
pkt_pts_time=95.171667
key_frame=1
pkt_pts_time=95.175000
--
pkt_pts_time=95.291667
key_frame=1
pkt_pts_time=95.296667
--
pkt_pts_time=95.421667
key_frame=1
pkt_pts_time=95.425000
--
pkt_pts_time=95.541667
key_frame=1
pkt_pts_time=95.545000
--
pkt_pts_time=95.670000
key_frame=1
pkt_pts_time=95.675000
--
pkt_pts_time=95.791667
key_frame=1
pkt_pts_time=95.795000
--
pkt_pts_time=95.920000
key_frame=1
pkt_pts_time=95.923333
--
pkt_pts_time=96.040000
key_frame=1
pkt_pts_time=96.045000
--
pkt_pts_time=96.170000
key_frame=1
pkt_pts_time=96.173333
--
pkt_pts_time=96.290000
key_frame=1
pkt_pts_time=96.293333
--
pkt_pts_time=96.418333
key_frame=1
pkt_pts_time=96.423333
--
pkt_pts_time=96.540000
key_frame=1
pkt_pts_time=96.543333
--
pkt_pts_time=96.668333
key_frame=1
pkt_pts_time=96.671667
--
pkt_pts_time=96.788333
key_frame=1
pkt_pts_time=96.793333
--
pkt_pts_time=96.918333
key_frame=1
pkt_pts_time=96.921667
--
pkt_pts_time=97.038333
key_frame=1
pkt_pts_time=97.041667
--
pkt_pts_time=97.166667
key_frame=1
pkt_pts_time=97.171667
--
pkt_pts_time=97.288333
key_frame=1
pkt_pts_time=97.291667
--
pkt_pts_time=97.416667
key_frame=1
pkt_pts_time=97.420000
--
pkt_pts_time=97.536667
key_frame=1
pkt_pts_time=97.541667
--
pkt_pts_time=97.666667
key_frame=1
pkt_pts_time=97.670000
--
pkt_pts_time=97.786667
key_frame=1
pkt_pts_time=97.791667
--
pkt_pts_time=97.915000
key_frame=1
pkt_pts_time=97.920000
--
pkt_pts_time=98.036667
key_frame=1
pkt_pts_time=98.040000
--
pkt_pts_time=98.165000
key_frame=1
pkt_pts_time=98.170000
--
pkt_pts_time=98.285000
key_frame=1
pkt_pts_time=98.290000
--
pkt_pts_time=98.415000
key_frame=1
pkt_pts_time=98.418333
--
pkt_pts_time=98.535000
key_frame=1
pkt_pts_time=98.540000
--
pkt_pts_time=98.663333
key_frame=1
pkt_pts_time=98.668333
--
pkt_pts_time=98.785000
key_frame=1
pkt_pts_time=98.788333
--
pkt_pts_time=98.913333
key_frame=1
pkt_pts_time=98.918333
--
pkt_pts_time=99.033333
key_frame=1
pkt_pts_time=99.038333
--
pkt_pts_time=99.163333
key_frame=1
pkt_pts_time=99.166667
--
pkt_pts_time=99.283333
key_frame=1
pkt_pts_time=99.288333
--
pkt_pts_time=99.411667
key_frame=1
pkt_pts_time=99.416667
--
pkt_pts_time=99.533333
key_frame=1
pkt_pts_time=99.536667
--
pkt_pts_time=99.661667
key_frame=1
pkt_pts_time=99.666667
--
pkt_pts_time=99.781667
key_frame=1
pkt_pts_time=99.786667
--
pkt_pts_time=99.911667
key_frame=1
pkt_pts_time=99.915000
--
pkt_pts_time=100.031667
key_frame=1
pkt_pts_time=100.036667
--
pkt_pts_time=100.160000
key_frame=1
pkt_pts_time=100.165000
--
pkt_pts_time=100.281667
key_frame=1
pkt_pts_time=100.285000
--
pkt_pts_time=100.410000
key_frame=1
pkt_pts_time=100.415000
--
pkt_pts_time=100.530000
key_frame=1
pkt_pts_time=100.535000
--
pkt_pts_time=100.660000
key_frame=1
pkt_pts_time=100.663333
--
pkt_pts_time=100.780000
key_frame=1
pkt_pts_time=100.785000
--
pkt_pts_time=100.910000
key_frame=1
pkt_pts_time=100.913333
--
pkt_pts_time=101.030000
key_frame=1
pkt_pts_time=101.033333
--
pkt_pts_time=101.158333
key_frame=1
pkt_pts_time=101.163333
--
pkt_pts_time=101.280000
key_frame=1
pkt_pts_time=101.283333
--
pkt_pts_time=101.408333
key_frame=1
pkt_pts_time=101.411667
--
pkt_pts_time=101.528333
key_frame=1
pkt_pts_time=101.533333
--
pkt_pts_time=101.658333
key_frame=1
pkt_pts_time=101.661667
--
pkt_pts_time=101.778333
key_frame=1
pkt_pts_time=101.781667
--
pkt_pts_time=101.906667
key_frame=1
pkt_pts_time=101.911667
--
pkt_pts_time=102.028333
key_frame=1
pkt_pts_time=102.031667
--
pkt_pts_time=102.156667
key_frame=1
pkt_pts_time=102.160000
--
pkt_pts_time=102.276667
key_frame=1
pkt_pts_time=102.281667
--
pkt_pts_time=102.406667
key_frame=1
pkt_pts_time=102.410000
--
pkt_pts_time=102.526667
key_frame=1
pkt_pts_time=102.530000
--
pkt_pts_time=102.655000
key_frame=1
pkt_pts_time=102.660000
--
pkt_pts_time=102.776667
key_frame=1
pkt_pts_time=102.780000
--
pkt_pts_time=102.905000
key_frame=1
pkt_pts_time=102.908333
